<svg width="604" height="604" viewBox="0 0 604 604" fill="none" xmlns="http://www.w3.org/2000/svg">
<path d="M92.0458 232.219C94.4077 272.371 94.2097 305.666 94.0347 335.043C93.5717 412.928 92.8467 463.672 147.616 518.441C200.249 571.073 285.891 571.077 338.527 518.441C338.528 518.44 338.528 518.439 338.529 518.438L487.013 369.954C504.599 352.37 504.602 323.904 487.013 306.316C483.297 302.599 479.085 299.67 474.59 297.528L499.199 272.919C516.743 255.374 516.743 226.827 499.199 209.281C495.061 205.143 490.307 201.994 485.233 199.808C495.015 182.77 492.793 160.45 477.986 145.644C474.067 141.725 469.597 138.688 464.825 136.52C475.938 119.286 474.177 95.7936 458.773 80.3912C444.122 65.7397 421.803 63.3348 404.635 73.1384C402.41 67.9946 399.219 63.2608 395.136 59.179C377.593 41.6347 349.044 41.6337 331.518 59.16C330.606 60.068 252.139 138.252 201.891 188.427L194.177 133.881C193.569 109.612 173.737 90.0408 149.195 90.0408C124.626 90.0408 104.799 109.642 104.21 133.938C104.199 134.353 104.207 134.769 104.231 135.183C105.432 155.58 106.083 176.112 106.262 199.236C96.1406 208.718 91.4808 222.213 92.0458 232.219V232.219ZM465.801 348.743L317.315 497.229C276.379 538.166 209.766 538.167 168.828 497.229C123.341 451.742 123.573 412.801 124.034 335.221C124.21 305.566 124.41 271.981 122.036 231.189C122.787 218.353 138.49 212.343 147.616 221.469C152.704 226.557 150.755 228.747 152.158 234.186C152.161 234.213 152.165 234.24 152.17 234.266L164.21 319.405C165.94 331.624 180.931 336.651 189.669 327.909C215.558 302.017 186.955 330.603 338.958 178.654C344.833 173.216 354.029 173.335 359.739 179.044C365.602 184.907 365.602 194.394 359.739 200.256C359.737 200.258 359.736 200.26 359.734 200.262L296.102 263.894C290.244 269.752 290.244 279.248 296.102 285.106C301.958 290.964 311.455 290.964 317.314 285.106C322.294 280.126 397.205 205.216 402.165 200.256C408.014 194.409 417.529 194.409 423.376 200.257C429.239 206.12 429.239 215.607 423.376 221.47C423.376 221.47 343.496 301.35 338.526 306.319C332.668 312.177 332.668 321.674 338.526 327.532C344.383 333.389 353.881 333.389 359.738 327.532L423.376 263.894C429.226 258.045 438.742 258.046 444.588 263.894C450.437 269.743 450.438 279.258 444.589 285.106C433.999 295.696 385.571 344.124 380.952 348.744C375.094 354.601 375.094 364.098 380.952 369.956C386.808 375.814 396.306 375.814 402.164 369.956L444.664 327.456C450.52 321.683 459.977 321.709 465.801 327.531C471.664 333.392 471.664 342.88 465.801 348.743V348.743ZM456.775 166.858C462.637 172.721 462.637 182.207 456.775 188.07L453.39 191.455C451.213 186.908 448.259 182.713 444.588 179.043C440.918 175.373 436.724 172.42 432.177 170.243L435.569 166.851C441.418 161.01 450.93 161.012 456.775 166.858V166.858ZM477.988 251.707L474.583 255.112C472.441 250.616 469.52 246.4 465.801 242.681C462.083 238.963 457.868 236.041 453.371 233.899L456.775 230.495C462.624 224.647 472.141 224.648 477.987 230.494C483.835 236.343 483.835 245.859 477.988 251.707V251.707ZM437.562 101.605C443.407 107.45 443.43 116.91 437.599 122.781C435.687 124.677 448.651 111.817 389.752 170.244C387.575 165.697 384.621 161.502 380.951 157.831C377.265 154.145 373.089 151.244 368.636 149.106C371.309 146.446 414.682 103.264 416.348 101.604C422.201 95.7556 431.715 95.7576 437.562 101.605V101.605ZM201.854 230.874C246.655 186.067 351.638 81.4631 352.712 80.3932C358.562 74.5444 368.076 74.5454 373.925 80.3932C379.521 85.9889 379.728 94.7856 374.807 100.633C234.536 240.622 440.77 34.357 189.705 285.446L182.175 232.205C188.183 236.772 196.577 236.154 201.854 230.874V230.874ZM134.221 134.153C134.969 121.32 150.676 115.31 159.801 124.433C164.89 129.523 162.94 131.711 164.343 137.15C164.347 137.178 174.179 206.699 174.179 206.699C165.36 193.84 151.019 186.829 136.125 187.119C135.839 168.456 135.217 151.262 134.221 134.153V134.153Z" fill="#111111"/>
<path d="M589 137.997H559.002C550.718 137.997 544.002 144.713 544.002 152.996C544.002 161.28 550.718 167.996 559.002 167.996H589C597.284 167.996 604 161.28 604 152.996C604 144.713 597.285 137.997 589 137.997Z" fill="#111111"/>
<path d="M538.609 101.604L568.608 71.6055C574.466 65.7477 574.466 56.2511 568.608 50.3933C562.751 44.5356 553.254 44.5356 547.396 50.3933L517.397 80.3922C511.539 86.2499 511.539 95.7466 517.397 101.604C523.254 107.462 532.752 107.463 538.609 101.604Z" fill="#111111"/>
</svg>
